<?xml version="1.0" standalone="no"?>
<!DOCTYPE svg PUBLIC "-//W3C//DTD SVG 20010904//EN"
 "http://www.w3.org/TR/2001/REC-SVG-20010904/DTD/svg10.dtd">
<svg version="1.0" xmlns="http://www.w3.org/2000/svg"
 width="500.000000pt" height="500.000000pt" viewBox="0 0 500.000000 500.000000"
 preserveAspectRatio="xMidYMid meet">

<g transform="translate(0.000000,500.000000) scale(0.100000,-0.100000)"
fill="#000000" stroke="none">
<path d="M0 2500 l0 -2500 2500 0 2500 0 0 2500 0 2500 -2500 0 -2500 0 0
-2500z m2803 2263 c-13 -2 -35 -2 -50 0 -16 2 -5 4 22 4 28 0 40 -2 28 -4z
m-96 -9 c-3 -3 -12 -4 -19 -1 -8 3 -5 6 6 6 11 1 17 -2 13 -5z m-72 -26 c-11
-6 -32 -20 -47 -30 -16 -11 -28 -17 -28 -14 0 8 73 56 85 56 5 0 1 -6 -10 -12z
m290 2 c3 -6 -1 -7 -9 -4 -18 7 -21 14 -7 14 6 0 13 -4 16 -10z m-947 -59
c-13 -17 -27 -30 -32 -30 -6 -1 3 13 19 29 37 38 43 39 13 1z m1022 4 c13 -14
21 -25 18 -25 -2 0 -15 11 -28 25 -13 14 -21 25 -18 25 2 0 15 -11 28 -25z
m-494 -58 c5 -9 4 -9 -6 0 -9 8 -18 9 -25 3 -7 -6 -11 -3 -11 10 0 14 4 16 18
9 9 -5 20 -15 24 -22z m143 -87 c6 0 11 -5 11 -11 0 -12 -56 19 -73 41 -7 8 2
4 20 -8 17 -12 36 -22 42 -22z m-293 11 c-6 -10 -91 -51 -103 -51 -7 1 95 58
105 60 2 0 1 -4 -2 -9z m-723 -38 c-7 -2 -21 -2 -30 0 -10 3 -4 5 12 5 17 0
24 -2 18 -5z m734 1 c-3 -3 -12 -4 -19 -1 -8 3 -5 6 6 6 11 1 17 -2 13 -5z
m190 0 c-3 -3 -12 -4 -19 -1 -8 3 -5 6 6 6 11 1 17 -2 13 -5z m-864 -11 c-7
-2 -19 -2 -25 0 -7 3 -2 5 12 5 14 0 19 -2 13 -5z m774 1 c-3 -3 -12 -4 -19
-1 -8 3 -5 6 6 6 11 1 17 -2 13 -5z m-724 -11 c-7 -2 -19 -2 -25 0 -7 3 -2 5
12 5 14 0 19 -2 13 -5z m1631 -9 c3 -8 2 -12 -4 -9 -6 3 -10 10 -10 16 0 14 7
11 14 -7z m43 10 c-3 -3 -12 -4 -19 -1 -8 3 -5 6 6 6 11 1 17 -2 13 -5z
m-1928 -8 c-2 -2 -15 -9 -29 -15 -24 -11 -24 -11 -6 3 16 13 49 24 35 12z
m314 -3 c-7 -2 -19 -2 -25 0 -7 3 -2 5 12 5 14 0 19 -2 13 -5z m57 -9 c0 -2
-9 -4 -21 -4 -11 0 -18 4 -14 10 5 8 35 3 35 -6z m317 0 c-3 -3 -12 -4 -19 -1
-8 3 -5 6 6 6 11 1 17 -2 13 -5z m1000 -30 c0 -17 -14 -8 -28 17 -9 18 -8 19
9 8 10 -6 19 -18 19 -25z m-1264 19 c-7 -2 -19 -2 -25 0 -7 3 -2 5 12 5 14 0
19 -2 13 -5z m214 1 c-3 -3 -12 -4 -19 -1 -8 3 -5 6 6 6 11 1 17 -2 13 -5z
m1100 0 c-3 -3 -12 -4 -19 -1 -8 3 -5 6 6 6 11 1 17 -2 13 -5z m-1797 -8 c0
-2 -8 -10 -17 -17 -16 -13 -17 -12 -4 4 13 16 21 21 21 13z m593 -3 c-18 -2
-48 -2 -65 0 -18 2 -4 4 32 4 36 0 50 -2 33 -4z m864 -9 c-3 -3 -12 -4 -19 -1
-8 3 -5 6 6 6 11 1 17 -2 13 -5z m140 -11 c-20 -2 -52 -2 -70 0 -17 2 0 4 38
4 39 0 53 -2 32 -4z m598 -33 c10 -11 16 -20 13 -20 -3 0 -13 9 -23 20 -10 11
-16 20 -13 20 3 0 13 -9 23 -20z m-2245 6 c0 -2 -8 -10 -17 -17 -16 -13 -17
-12 -4 4 13 16 21 21 21 13z m1831 -13 c13 -16 12 -17 -3 -4 -17 13 -22 21
-14 21 2 0 10 -8 17 -17z m-1471 -46 c0 -1 -26 -27 -57 -57 l-58 -55 55 58
c50 53 60 62 60 54z m1581 -64 c13 -16 12 -17 -3 -4 -17 13 -22 21 -14 21 2 0
10 -8 17 -17z m386 -55 c-3 -8 -6 -5 -6 6 -1 11 2 17 5 13 3 -3 4 -12 1 -19z
m-2092 2 c-3 -5 -16 -15 -28 -21 -19 -9 -19 -8 3 10 28 23 34 26 25 11z m-328
-72 c-3 -8 -6 -5 -6 6 -1 11 2 17 5 13 3 -3 4 -12 1 -19z m163 -23 c-7 -8 -17
-12 -22 -9 -5 3 -1 12 9 19 22 17 30 11 13 -10z m2167 19 c-3 -3 -12 -4 -19
-1 -8 3 -5 6 6 6 11 1 17 -2 13 -5z m50 -10 c-3 -3 -12 -4 -19 -1 -8 3 -5 6 6
6 11 1 17 -2 13 -5z m63 -21 c0 -10 -4 -14 -8 -8 -4 6 -11 13 -16 18 -5 4 -2
7 7 7 10 0 17 -8 17 -17z m-2323 1 c-3 -3 -12 -4 -19 -1 -8 3 -5 6 6 6 11 1
17 -2 13 -5z m2376 -1 c-7 -2 -19 -2 -25 0 -7 3 -2 5 12 5 14 0 19 -2 13 -5z
m-2503 -18 c0 -10 -9 -15 -27 -14 -24 2 -25 2 -5 6 12 2 22 9 22 14 0 5 2 9 5
9 3 0 5 -7 5 -15z m87 9 c-3 -3 -12 -4 -19 -1 -8 3 -5 6 6 6 11 1 17 -2 13 -5z
m2466 -1 c-7 -2 -19 -2 -25 0 -7 3 -2 5 12 5 14 0 19 -2 13 -5z m-2516 -9 c-3
-3 -12 -4 -19 -1 -8 3 -5 6 6 6 11 1 17 -2 13 -5z m2576 -1 c-7 -2 -19 -2 -25
0 -7 3 -2 5 12 5 14 0 19 -2 13 -5z m-2686 -19 c-3 -3 -12 -4 -19 -1 -8 3 -5
6 6 6 11 1 17 -2 13 -5z m-54 -11 c-7 -2 -19 -2 -25 0 -7 3 -2 5 12 5 14 0 19
-2 13 -5z m-46 -9 c-3 -3 -12 -4 -19 -1 -8 3 -5 6 6 6 11 1 17 -2 13 -5z m160
-16 c-3 -8 -6 -5 -6 6 -1 11 2 17 5 13 3 -3 4 -12 1 -19z m-237 -14 c-25 -14
-61 -40 -80 -57 -33 -30 -33 -30 -10 -3 27 31 107 86 124 86 6 0 -9 -12 -34
-26z m350 12 c0 -2 -8 -10 -17 -17 -16 -13 -17 -12 -4 4 13 16 21 21 21 13z
m2712 -71 c6 -11 7 -15 2 -10 -5 6 -25 28 -44 50 l-35 40 33 -30 c19 -17 38
-39 44 -50z m-1607 -171 c-13 -20 -14 -133 -12 -923 1 -596 -1 -901 -8 -901
-7 0 -9 304 -7 897 2 694 0 903 -10 921 -14 27 1 43 33 35 18 -5 18 -7 4 -29z
m1662 -21 c-3 -10 -5 -2 -5 17 0 19 2 27 5 18 2 -10 2 -26 0 -35z m-3280 -45
c-2 -18 -4 -6 -4 27 0 33 2 48 4 33 2 -15 2 -42 0 -60z m273 9 c0 -2 -10 -12
-22 -23 l-23 -19 19 23 c18 21 26 27 26 19z m2795 -77 c27 -27 47 -50 44 -50
-3 0 -27 23 -54 50 -27 28 -47 50 -44 50 3 0 27 -22 54 -50z m-2895 -24 c0 -2
-8 -10 -17 -17 -16 -13 -17 -12 -4 4 13 16 21 21 21 13z m-153 -38 c-3 -8 -6
-5 -6 6 -1 11 2 17 5 13 3 -3 4 -12 1 -19z m3164 -35 c13 -16 12 -17 -3 -4
-17 13 -22 21 -14 21 2 0 10 -8 17 -17z m-3159 -35 c-8 -8 -9 -4 -5 13 4 13 8
18 11 10 2 -7 -1 -18 -6 -23z m3221 2 c3 -11 1 -18 -4 -14 -5 3 -9 12 -9 20 0
20 7 17 13 -6z m68 -57 c13 -16 12 -17 -3 -4 -17 13 -22 21 -14 21 2 0 10 -8
17 -17z m-3264 -45 c-3 -7 -5 -2 -5 12 0 14 2 19 5 13 2 -7 2 -19 0 -25z
m3334 -5 c13 -16 12 -17 -3 -4 -17 13 -22 21 -14 21 2 0 10 -8 17 -17z m-3534
-21 c-10 -10 -14 -23 -10 -28 4 -5 1 -3 -7 3 -12 11 -11 15 6 28 26 20 30 19
11 -3z m3573 -7 c11 -13 10 -14 -4 -9 -9 3 -16 10 -16 15 0 13 6 11 20 -6z
m-2390 -80 c69 -23 90 -37 90 -56 0 -23 -32 -44 -87 -59 -24 -6 -43 -13 -43
-17 0 -10 80 7 112 23 l29 15 -3 -28 c-5 -44 -81 -66 -228 -67 -131 -1 -220
16 -254 47 -21 19 -23 28 -18 66 8 53 38 75 123 90 72 13 223 6 279 -14z
m-983 -77 c-3 -7 -5 -2 -5 12 0 14 2 19 5 13 2 -7 2 -19 0 -25z m2309 -23 c49
-21 113 -47 142 -58 l54 -20 61 22 c85 32 241 40 319 17 61 -17 108 -61 108
-99 0 -42 -38 -87 -97 -114 -44 -21 -72 -26 -139 -27 -46 0 -84 -3 -84 -5 0
-2 12 -44 26 -92 29 -94 71 -159 105 -159 12 0 28 14 41 37 12 20 24 31 26 25
6 -18 -36 -80 -59 -87 -59 -19 -101 32 -142 173 l-24 83 -40 -53 c-94 -124
-172 -178 -256 -178 -40 0 -49 4 -58 24 -9 20 -7 33 11 70 12 26 31 51 41 57
16 8 13 1 -10 -32 -34 -47 -38 -70 -16 -89 52 -43 152 16 266 158 57 70 60 77
40 80 -32 5 -20 27 15 27 22 1 44 16 91 64 57 58 82 70 90 45 2 -6 -6 -10 -18
-10 -15 1 -37 -16 -67 -54 l-46 -55 55 -3 c95 -6 175 30 199 88 26 63 -29 114
-134 125 -65 7 -179 -9 -184 -25 -6 -16 -58 -40 -88 -40 -41 0 -124 -87 -124
-129 0 -19 6 -34 15 -37 30 -12 82 7 125 43 40 35 42 35 25 9 -21 -32 -106
-76 -147 -76 -43 0 -58 23 -46 67 6 21 19 50 30 66 l19 27 -25 0 c-38 0 -87
-50 -183 -184 -105 -147 -125 -171 -182 -207 -88 -57 -189 -29 -192 53 -3 60
3 102 20 148 17 44 17 46 -6 79 -40 59 -28 138 30 199 96 100 245 117 413 47z
m-2619 -72 c-2 -16 -4 -3 -4 27 0 30 2 43 4 28 2 -16 2 -40 0 -55z m924 5
c111 -52 350 -51 454 3 40 21 40 21 21 1 -10 -12 -31 -24 -47 -27 -16 -4 -29
-11 -29 -16 0 -14 39 -2 74 23 19 13 27 16 24 7 -2 -8 -27 -26 -54 -41 -41
-23 -45 -28 -24 -28 26 0 66 22 87 50 11 13 12 13 13 -1 0 -22 -30 -47 -86
-70 -45 -18 -37 -19 25 -3 l24 7 -7 -69 c-4 -38 -9 -77 -12 -86 -7 -25 -67
-41 -189 -49 l-110 -7 120 3 c66 1 132 8 148 14 25 10 27 9 26 -17 -1 -62 -26
-203 -38 -215 -6 -6 -26 -17 -44 -24 l-32 -12 39 6 38 6 -7 -64 c-4 -35 -11
-71 -16 -80 -33 -63 -318 -71 -374 -10 -10 13 -17 43 -20 95 -2 42 -7 82 -12
88 -7 12 -32 189 -33 235 0 17 4 21 18 17 12 -4 13 -3 4 3 -12 9 -31 107 -32
161 0 19 3 21 19 12 36 -19 36 -10 1 11 -36 22 -50 37 -50 54 0 6 5 3 11 -5 8
-11 9 -8 4 13 -4 19 -2 26 4 22 7 -4 9 6 5 27 -6 33 -5 33 8 8 7 -14 29 -32
49 -42z m-660 -65 c-12 -20 -14 -14 -5 12 4 9 9 14 11 11 3 -2 0 -13 -6 -23z
m3270 -56 c-9 -9 -10 -5 -7 13 6 36 8 37 13 16 3 -10 0 -23 -6 -29z m-3288 13
c-3 -10 -12 -25 -21 -32 -13 -11 -12 -8 2 20 19 36 27 41 19 12z m3274 -72
c-3 -8 -6 -5 -6 6 -1 11 2 17 5 13 3 -3 4 -12 1 -19z m-10 -115 c-2 -16 -4 -5
-4 22 0 28 2 40 4 28 2 -13 2 -35 0 -50z m133 26 c15 -28 5 -23 -15 7 -9 15
-12 23 -6 20 6 -4 16 -16 21 -27z m-3498 9 c-9 -9 -9 -15 1 -27 11 -14 10 -14
-6 -2 -13 10 -15 17 -6 27 6 8 14 14 17 14 3 0 1 -5 -6 -12z m3385 -180 c-3
-8 -6 -5 -6 6 -1 11 2 17 5 13 3 -3 4 -12 1 -19z m-3270 -40 c-3 -8 -6 -5 -6
6 -1 11 2 17 5 13 3 -3 4 -12 1 -19z m-260 -95 c-3 -10 -5 -4 -5 12 0 17 2 24
5 18 2 -7 2 -21 0 -30z m98 -213 c10 -11 16 -20 13 -20 -3 0 -13 9 -23 20 -10
11 -16 20 -13 20 3 0 13 -9 23 -20z m36 -47 c-9 -15 -10 -14 -7 7 6 35 7 37
12 23 3 -7 1 -20 -5 -30z m3536 15 c-3 -8 -6 -5 -6 6 -1 11 2 17 5 13 3 -3 4
-12 1 -19z m0 -100 c-3 -8 -6 -5 -6 6 -1 11 2 17 5 13 3 -3 4 -12 1 -19z
m-3221 -131 l49 -52 -55 51 c-70 65 -110 95 -120 89 -3 -2 -7 2 -7 10 0 19 72
-33 133 -98z m3124 -41 c0 -2 -8 -10 -17 -17 -16 -13 -17 -12 -4 4 13 16 21
21 21 13z m-3354 -38 l29 -33 -32 29 c-31 28 -38 36 -30 36 2 0 16 -15 33 -32z
m295 5 c13 -16 12 -17 -3 -4 -10 7 -18 15 -18 17 0 8 8 3 21 -13z m1372 -77
c4 -9 -2 -17 -15 -21 -23 -8 -44 8 -34 24 10 16 43 13 49 -3z m1327 -71 c0 -2
-10 -10 -22 -16 -21 -11 -22 -11 -9 4 13 16 31 23 31 12z m-2600 -50 c0 -8 -2
-15 -4 -15 -2 0 -6 7 -10 15 -3 8 -1 15 4 15 6 0 10 -7 10 -15z m2500 -18 c0
-2 -19 -21 -42 -42 l-43 -40 40 43 c36 39 45 47 45 39z m-2543 -153 c-3 -3
-12 -4 -19 -1 -8 3 -5 6 6 6 11 1 17 -2 13 -5z m80 -26 c-3 -8 -6 -5 -6 6 -1
11 2 17 5 13 3 -3 4 -12 1 -19z m2294 -51 c-10 -9 -11 -8 -5 6 3 10 9 15 12
12 3 -3 0 -11 -7 -18z m-2274 -59 c-3 -8 -6 -5 -6 6 -1 11 2 17 5 13 3 -3 4
-12 1 -19z m394 -35 c13 -16 12 -17 -3 -4 -10 7 -18 15 -18 17 0 8 8 3 21 -13z
m-384 -15 c-3 -8 -6 -5 -6 6 -1 11 2 17 5 13 3 -3 4 -12 1 -19z m444 -35 c13
-16 12 -17 -3 -4 -10 7 -18 15 -18 17 0 8 8 3 21 -13z m1929 -87 c0 -2 -8 -10
-17 -17 -16 -13 -17 -12 -4 4 13 16 21 21 21 13z m-2280 -41 c13 -14 21 -25
18 -25 -2 0 -15 11 -28 25 -13 14 -21 25 -18 25 2 0 15 -11 28 -25z m633 -22
c-7 -2 -21 -2 -30 0 -10 3 -4 5 12 5 17 0 24 -2 18 -5z m125 0 c-10 -2 -28 -2
-40 0 -13 2 -5 4 17 4 22 1 32 -1 23 -4z m390 -20 c-10 -2 -26 -2 -35 0 -10 3
-2 5 17 5 19 0 27 -2 18 -5z m-111 -9 c-3 -3 -12 -4 -19 -1 -8 3 -5 6 6 6 11
1 17 -2 13 -5z m210 0 c-3 -3 -12 -4 -19 -1 -8 3 -5 6 6 6 11 1 17 -2 13 -5z
m-292 -25 c5 -5 -5 -4 -23 2 -17 6 -32 13 -32 16 0 7 43 -8 55 -18z m342 15
c-3 -3 -12 -4 -19 -1 -8 3 -5 6 6 6 11 1 17 -2 13 -5z m-1130 -20 c-3 -3 -12
-4 -19 -1 -8 3 -5 6 6 6 11 1 17 -2 13 -5z m123 2 c0 -7 -40 -14 -44 -7 -3 4
6 8 20 9 13 1 24 0 24 -2z m1720 -19 c0 -2 -15 -16 -32 -33 l-33 -29 29 33
c28 30 36 37 36 29z m-1719 -34 c13 -16 12 -17 -3 -4 -17 13 -22 21 -14 21 2
0 10 -8 17 -17z m824 -43 c3 -5 1 -10 -4 -10 -6 0 -11 5 -11 10 0 6 2 10 4 10
3 0 8 -4 11 -10z m542 -15 c0 -10 -6 -14 -14 -10 -8 3 -18 5 -21 6 -4 0 2 4
13 9 11 5 20 9 21 9 0 1 1 -6 1 -14z m248 5 c-3 -5 -12 -10 -18 -10 -7 0 -6 4
3 10 19 12 23 12 15 0z m-1480 -20 c13 -6 15 -9 5 -9 -8 0 -22 4 -30 9 -18 12
-2 12 25 0z m186 -17 c12 -16 12 -17 -1 -7 -8 6 -22 14 -30 17 -13 5 -12 6 1
6 9 1 23 -7 30 -16z m-83 0 c-16 -2 -40 -2 -55 0 -16 2 -3 4 27 4 30 0 43 -2
28 -4z m889 -89 c-3 -3 -12 -4 -19 -1 -8 3 -5 6 6 6 11 1 17 -2 13 -5z m-2129
-312 c26 -17 3 -38 -36 -34 -48 5 -65 -14 -65 -70 0 -54 28 -79 78 -71 27 4
35 2 35 -10 0 -18 -21 -27 -67 -27 -25 0 -43 8 -65 30 -28 29 -30 35 -26 87 4
46 10 61 32 80 28 23 87 31 114 15z m219 -16 c25 -22 28 -31 28 -86 0 -55 -3
-64 -28 -86 -33 -28 -100 -33 -134 -9 -53 37 -50 160 5 189 42 23 96 20 129
-8z m203 4 c0 -17 -7 -20 -40 -20 -38 0 -40 -2 -40 -30 0 -28 2 -30 40 -30 29
0 40 -4 40 -15 0 -11 -11 -15 -40 -15 l-40 0 0 -45 c0 -38 -3 -45 -20 -45 -19
0 -20 7 -20 110 l0 110 60 0 c53 0 60 -2 60 -20z m170 0 c0 -17 -7 -20 -40
-20 -38 0 -40 -2 -40 -30 0 -28 3 -30 35 -30 24 0 35 -5 35 -15 0 -10 -11 -15
-35 -15 -35 0 -35 0 -35 -45 0 -38 -3 -45 -20 -45 -19 0 -20 7 -20 110 l0 110
60 0 c53 0 60 -2 60 -20z m170 0 c0 -17 -7 -20 -40 -20 -36 0 -40 -2 -40 -25
0 -22 4 -25 35 -25 24 0 35 -5 35 -15 0 -10 -11 -15 -35 -15 -32 0 -35 -2 -35
-30 0 -28 2 -30 40 -30 33 0 40 -3 40 -20 0 -18 -7 -20 -65 -20 l-65 0 0 110
0 110 65 0 c58 0 65 -2 65 -20z m170 0 c0 -17 -7 -20 -40 -20 -36 0 -40 -2
-40 -25 0 -22 4 -25 35 -25 24 0 35 -5 35 -15 0 -10 -11 -15 -35 -15 -32 0
-35 -2 -35 -30 0 -28 2 -30 40 -30 33 0 40 -3 40 -20 0 -18 -7 -20 -60 -20
l-60 0 0 110 0 110 60 0 c53 0 60 -2 60 -20z m239 11 c25 -16 6 -35 -35 -35
-53 -1 -51 -24 4 -54 23 -13 43 -31 43 -40 4 -59 -21 -84 -80 -80 -39 3 -47 7
-49 25 -3 20 -1 21 28 13 69 -20 80 15 18 57 -53 35 -64 81 -26 107 24 17 75
21 97 7z m101 -36 l0 -45 45 0 45 0 0 45 c0 38 3 45 20 45 19 0 20 -7 20 -110
0 -102 -1 -110 -19 -110 -17 0 -20 8 -23 48 l-3 47 -42 3 -43 3 0 -50 c0 -44
-3 -51 -20 -51 -19 0 -20 7 -20 110 0 103 1 110 20 110 17 0 20 -7 20 -45z
m355 21 c30 -30 40 -84 25 -130 -15 -46 -44 -66 -95 -66 -51 0 -80 20 -95 66
-15 46 -5 100 25 130 18 18 35 24 70 24 35 0 52 -6 70 -24z m209 5 c10 -8 16
-29 16 -52 0 -44 -27 -69 -72 -69 -26 0 -28 -3 -28 -40 0 -33 -3 -40 -20 -40
-19 0 -20 7 -20 111 l0 111 54 -4 c30 -3 62 -10 70 -17z m175 10 c25 -16 6
-35 -35 -35 -53 -1 -51 -24 4 -54 23 -13 43 -31 43 -40 4 -59 -21 -84 -80 -80
-39 3 -47 7 -49 25 -3 20 -1 21 28 13 69 -20 80 15 18 57 -53 35 -64 81 -26
107 24 17 75 21 97 7z m281 -11 c0 -16 -7 -20 -30 -20 l-30 0 0 -90 c0 -89 0
-90 -25 -90 -25 0 -25 1 -25 90 l0 90 -30 0 c-28 0 -40 17 -23 33 3 4 42 7 85
7 71 0 78 -2 78 -20z m80 -90 l0 -110 -25 0 -25 0 0 110 0 110 25 0 25 0 0
-110z m200 -2 l38 -108 -24 0 c-17 0 -25 7 -30 25 -5 22 -12 25 -50 25 -38 0
-44 -3 -50 -25 -4 -18 -13 -25 -31 -25 -16 0 -23 5 -20 13 2 6 19 56 38 110
33 95 35 98 63 95 27 -3 31 -10 66 -110z m274 93 c21 -18 20 -70 -1 -93 -16
-17 -15 -21 15 -63 l32 -45 -25 0 c-17 0 -32 12 -52 42 -15 23 -32 42 -38 42
-5 1 -11 -18 -13 -41 -3 -35 -7 -43 -23 -43 -18 0 -19 8 -19 111 l0 111 54 -4
c30 -3 62 -10 70 -17z m219 7 c36 -19 46 -40 46 -98 0 -78 -30 -110 -104 -110
-27 0 -44 8 -67 30 -28 29 -30 35 -26 87 4 46 10 61 32 80 30 25 83 31 119 11z
m203 6 c14 -4 20 -12 17 -23 -3 -13 -13 -16 -44 -13 -34 4 -39 1 -39 -16 0
-12 9 -23 19 -27 96 -30 92 -135 -5 -135 -45 0 -64 9 -64 31 0 22 0 22 35 9
27 -10 65 1 65 20 0 4 -17 18 -37 31 -67 39 -80 72 -43 109 20 20 55 25 96 14z
m203 -91 c19 -54 36 -104 39 -110 2 -8 -5 -13 -21 -13 -18 0 -27 7 -31 25 -5
21 -12 25 -46 25 -34 0 -42 -4 -50 -25 -6 -16 -17 -25 -31 -25 -25 0 -24 8 22
135 28 78 33 85 58 85 25 0 29 -7 60 -97z m-3609 -339 c0 -47 -3 -55 -17 -52
-23 4 -32 86 -11 99 24 16 28 9 28 -47z m3778 44 c18 -18 15 -85 -4 -92 -30
-12 -34 -6 -34 49 0 56 12 69 38 43z m-3668 -19 c73 -12 3424 -11 3510 1 36 5
75 12 88 16 21 6 22 3 22 -41 0 -44 -1 -47 -22 -41 -81 24 -249 26 -1833 26
-1584 0 -1752 -2 -1832 -26 -22 -6 -23 -3 -23 41 0 41 2 46 18 40 9 -4 42 -11
72 -16z m-170 -31 c0 -30 -1 -31 -16 -16 -9 9 -14 24 -11 32 11 27 27 17 27
-16z m3890 7 c0 -16 -6 -25 -15 -25 -9 0 -15 9 -15 25 0 16 6 25 15 25 9 0 15
-9 15 -25z"/>
<path d="M1800 3311 c0 -6 13 -11 29 -11 79 0 128 -53 61 -66 -16 -4 -30 -10
-30 -14 0 -13 49 2 66 21 16 18 16 20 -1 39 -10 11 -34 22 -54 26 -20 3 -44 8
-53 11 -10 2 -18 0 -18 -6z"/>
<path d="M1600 3297 c-69 -35 -15 -72 121 -83 109 -9 99 2 -14 15 -132 15
-157 38 -74 68 22 8 26 12 12 12 -11 0 -31 -5 -45 -12z"/>
<path d="M1530 3237 c0 -16 9 -28 26 -36 49 -22 254 -41 254 -23 0 4 -37 8
-83 10 -95 3 -148 13 -148 27 0 13 -29 45 -41 45 -4 0 -8 -11 -8 -23z"/>
<path d="M2953 3211 c-28 -9 -68 -30 -88 -46 -62 -47 -94 -146 -61 -190 13
-18 17 -16 69 32 64 58 132 82 180 64 63 -24 14 -148 -87 -218 -73 -50 -145
-42 -121 15 8 16 8 16 13 -2 3 -15 11 -17 43 -13 97 13 207 162 147 200 -25
17 -88 -7 -142 -54 -60 -53 -60 -69 2 -69 32 0 42 -3 33 -9 -8 -5 -36 -7 -61
-4 l-47 5 -23 -53 c-30 -68 -32 -149 -6 -178 28 -30 82 -27 137 7 52 33 75 62
188 229 94 139 147 193 191 193 16 0 33 -6 37 -14 7 -12 11 -12 27 0 19 13 19
14 0 20 -10 4 -53 22 -95 40 -121 54 -157 64 -223 64 -33 -1 -84 -9 -113 -19z"/>
<path d="M1524 3122 c16 -26 276 -54 325 -35 18 7 -3 10 -80 11 -94 1 -159 9
-228 28 -16 5 -22 4 -17 -4z"/>
<path d="M1578 3033 c7 -3 16 -2 19 1 4 3 -2 6 -13 5 -11 0 -14 -3 -6 -6z"/>
<path d="M1628 3023 c6 -2 18 -2 25 0 6 3 1 5 -13 5 -14 0 -19 -2 -12 -5z"/>
<path d="M1878 3023 c6 -2 18 -2 25 0 6 3 1 5 -13 5 -14 0 -19 -2 -12 -5z"/>
<path d="M1738 3013 c12 -2 30 -2 40 0 9 3 -1 5 -23 4 -22 0 -30 -2 -17 -4z"/>
<path d="M1568 2863 c7 -3 16 -2 19 1 4 3 -2 6 -13 5 -11 0 -14 -3 -6 -6z"/>
<path d="M1618 2853 c6 -2 18 -2 25 0 6 3 1 5 -13 5 -14 0 -19 -2 -12 -5z"/>
<path d="M1648 2583 c7 -3 16 -2 19 1 4 3 -2 6 -13 5 -11 0 -14 -3 -6 -6z"/>
<path d="M1833 2583 c9 -2 23 -2 30 0 6 3 -1 5 -18 5 -16 0 -22 -2 -12 -5z"/>
<path d="M1738 2573 c12 -2 30 -2 40 0 9 3 -1 5 -23 4 -22 0 -30 -2 -17 -4z"/>
<path d="M770 631 c-5 -11 -10 -34 -10 -51 0 -49 16 -70 53 -70 18 0 38 5 45
12 16 16 16 100 0 116 -20 20 -76 15 -88 -7z"/>
<path d="M2180 631 c-14 -27 -13 -84 3 -105 8 -11 26 -18 42 -18 35 0 55 25
55 70 0 52 -15 72 -55 72 -24 0 -38 -6 -45 -19z"/>
<path d="M2420 621 c0 -36 7 -42 38 -30 34 13 27 53 -10 57 -25 3 -28 0 -28
-27z"/>
<path d="M3162 621 c-18 -50 -15 -61 13 -61 28 0 29 9 11 60 l-13 34 -11 -33z"/>
<path d="M3430 621 c0 -23 5 -31 18 -31 49 1 58 53 9 58 -24 3 -27 0 -27 -27z"/>
<path d="M3642 638 c-16 -16 -16 -100 0 -116 7 -7 26 -12 43 -12 34 0 55 28
55 73 0 53 -64 89 -98 55z"/>
<path d="M4067 623 c-3 -15 -9 -36 -12 -45 -6 -15 -2 -18 23 -18 l30 0 -12 39
c-15 52 -22 58 -29 24z"/>
</g>
</svg>
